<svg width="0" height="0" class="hidden">
  <symbol version="1.1" id="neutral" xmlns="http://www.w3.org/2000/svg" xmlns:xlink="http://www.w3.org/1999/xlink" x="0px" y="0px" xml:space="preserve" viewBox="0 0 60.7 60.7">
    <path d="M30.3,60.7C13.6,60.7,0,47.1,0,30.3C0,13.6,13.6,0,30.3,0c16.7,0,30.3,13.6,30.3,30.3
	C60.7,47.1,47.1,60.7,30.3,60.7z M30.3,4C15.8,4,4,15.8,4,30.3c0,14.5,11.8,26.3,26.3,26.3c14.5,0,26.3-11.8,26.3-26.3
	C56.7,15.8,44.9,4,30.3,4z"></path>
    <circle cx="19.8" cy="24.4" r="3.5"></circle>
    <circle cx="40.5" cy="24.4" r="3.5"></circle>
    <g>
      <g>
        <path d="M41.2,42.3H19.5c-1.1,0-2-0.9-2-2s0.9-2,2-2h21.7c1.1,0,2,0.9,2,2S42.3,42.3,41.2,42.3z"></path>
      </g>
    </g>
  </symbol>
  <symbol version="1.1" xmlns="http://www.w3.org/2000/svg" xmlns:xlink="http://www.w3.org/1999/xlink" viewBox="0 0 20 20" id="sad">
    <title>mood_bad</title>
    <desc>Created with Sketch.</desc>
    <g id="Icons" stroke="none" stroke-width="1" fill="none" fill-rule="evenodd">
      <g id="Rounded" transform="translate(-476.000000, -4100.000000)">
        <g id="Social" transform="translate(100.000000, 4044.000000)">
          <g id="-Round-/-Social-/-mood_bad" transform="translate(374.000000, 54.000000)">
            <g>
              <polygon id="Path" points="0 0 24 0 24 24 0 24"></polygon>
              <path d="M11.99,2 C6.47,2 2,6.48 2,12 C2,17.52 6.47,22 11.99,22 C17.52,22 22,17.52 22,12 C22,6.48 17.52,2 11.99,2 Z M12,20 C7.58,20 4,16.42 4,12 C4,7.58 7.58,4 12,4 C16.42,4 20,7.58 20,12 C20,16.42 16.42,20 12,20 Z M15.5,11 C16.33,11 17,10.33 17,9.5 C17,8.67 16.33,8 15.5,8 C14.67,8 14,8.67 14,9.5 C14,10.33 14.67,11 15.5,11 Z M8.5,11 C9.33,11 10,10.33 10,9.5 C10,8.67 9.33,8 8.5,8 C7.67,8 7,8.67 7,9.5 C7,10.33 7.67,11 8.5,11 Z M12,13.5 C9.97,13.5 8.2,14.61 7.25,16.25 C7.06,16.58 7.31,17 7.69,17 L16.31,17 C16.69,17 16.94,16.58 16.75,16.25 C15.8,14.61 14.03,13.5 12,13.5 Z" id="🔹-Icon-Color" fill="#1D1D1D"></path>
            </g>
          </g>
        </g>
      </g>
    </g>
  </symbol>
  <symbol version="1.1" xmlns="http://www.w3.org/2000/svg" xmlns:xlink="http://www.w3.org/1999/xlink" viewBox="0 0 20 20" id="happy">
    <title>mood</title>
    <desc>Created with Sketch.</desc>
    <g id="Icons" stroke="none" stroke-width="1" fill="none" fill-rule="evenodd">
      <g id="Outlined" transform="translate(-578.000000, -4100.000000)">
        <g id="Social" transform="translate(100.000000, 4044.000000)">
          <g id="Outlined-/-Social-/-mood" transform="translate(476.000000, 54.000000)">
            <g>
              <polygon id="Path" points="0 0 24 0 24 24 0 24"></polygon>
              <path d="M11.99,2 C6.47,2 2,6.48 2,12 C2,17.52 6.47,22 11.99,22 C17.52,22 22,17.52 22,12 C22,6.48 17.52,2 11.99,2 Z M12,20 C7.58,20 4,16.42 4,12 C4,7.58 7.58,4 12,4 C16.42,4 20,7.58 20,12 C20,16.42 16.42,20 12,20 Z M15.5,11 C16.33,11 17,10.33 17,9.5 C17,8.67 16.33,8 15.5,8 C14.67,8 14,8.67 14,9.5 C14,10.33 14.67,11 15.5,11 Z M8.5,11 C9.33,11 10,10.33 10,9.5 C10,8.67 9.33,8 8.5,8 C7.67,8 7,8.67 7,9.5 C7,10.33 7.67,11 8.5,11 Z M12,17.5 C14.33,17.5 16.31,16.04 17.11,14 L6.89,14 C7.69,16.04 9.67,17.5 12,17.5 Z" id="🔹-Icon-Color" fill="#1D1D1D"></path>
            </g>
          </g>
        </g>
      </g>
    </g>
  </symbol>
</svg>